<svg width="100" height="100" viewBox="0 0 100 100" fill="none" xmlns="http://www.w3.org/2000/svg">
<g clip-path="url(#clip0_42_107)">
<path d="M91.4652 41.758V41.7582C90.3826 36.2666 88.2633 31.1457 85.15 26.4998L91.1881 20.4615L79.5385 8.81191L73.5002 14.85C68.8543 11.7367 63.7334 9.61719 58.2418 8.53477V0H41.7582V8.53477C36.2666 9.61738 31.1457 11.7367 26.4998 14.85L20.4615 8.81191L8.81191 20.4615L14.85 26.4998C11.7367 31.1457 9.61719 36.2666 8.53477 41.7582H0V58.2418H8.53477C9.61719 63.7326 11.7361 68.8525 14.8486 73.4982L8.81133 79.5129L20.4605 91.1896L26.5002 85.1504C31.1463 88.2637 36.267 90.383 41.7586 91.4656V100H58.2422V91.4652C63.7338 90.3826 68.8547 88.2633 73.5006 85.15L79.5402 91.1893L91.1895 79.5125L85.1521 73.4978C88.2646 68.8523 90.3836 63.7322 91.466 58.2414H100V41.7578H91.4652V41.758ZM96.7033 54.9451H88.6875L88.4611 56.3271C87.4828 62.3004 85.1986 67.8195 81.6719 72.7309L80.8539 73.8701L86.5252 79.5199L79.5371 86.5246L73.8682 80.8557L72.7311 81.6721C67.8193 85.1988 62.3006 87.483 56.3273 88.4613L54.9453 88.6877V96.7033H45.0553V88.6875L43.6732 88.4611C37.7 87.4828 32.1809 85.1986 27.2695 81.6719L26.1324 80.8555L20.4635 86.5244L13.4754 79.5197L19.1467 73.8699L18.3287 72.7307C14.802 67.8189 12.5178 62.3002 11.5395 56.327L11.3131 54.9451H3.29668V45.0551H11.3125L11.5389 43.673C12.5172 37.6998 14.8014 32.1807 18.3281 27.2693L19.1445 26.1322L13.474 20.4617L20.4615 13.4742L26.132 19.1445L27.2691 18.3281C32.1809 14.8014 37.6996 12.5172 43.6729 11.5389L45.0549 11.3125V3.29687H54.9449V11.3125L56.327 11.5389C62.3002 12.5172 67.8193 14.8014 72.7307 18.3281L73.8678 19.1445L79.5383 13.4742L86.5258 20.4615L80.8555 26.132L81.6719 27.2691C85.1986 32.1809 87.4828 37.6996 88.4611 43.6729L88.6875 45.0549H96.7031V54.9451H96.7033Z" fill="#FD5526"/>
<path d="M50 19.7803C33.3367 19.7803 19.7803 33.3367 19.7803 50C19.7803 66.6633 33.3367 80.2197 50 80.2197C66.6633 80.2197 80.2197 66.6633 80.2197 50C80.2197 33.3367 66.6633 19.7803 50 19.7803ZM51.6486 23.1291C65.1836 23.9506 76.0494 34.8166 76.8713 48.3518H63.6342C62.8818 42.0934 57.9072 37.1186 51.6486 36.3662V23.1291ZM48.3516 23.1287V36.3658C42.0932 37.1182 37.1184 42.0928 36.366 48.3514H23.1289C23.9506 34.8164 34.8164 23.9506 48.3516 23.1287ZM48.3514 76.8709C34.8164 76.0494 23.9506 65.1834 23.1287 51.6482H36.3658C37.1182 57.9066 42.0928 62.8814 48.3514 63.6338V76.8709ZM39.5604 50C39.5604 44.2438 44.2438 39.5604 50 39.5604C55.7563 39.5604 60.4396 44.2438 60.4396 50C60.4396 55.7563 55.7564 60.4396 50 60.4396C44.2438 60.4396 39.5604 55.7563 39.5604 50ZM51.6484 76.8713V63.6342C57.9068 62.8818 62.8816 57.9072 63.634 51.6486H76.8711C76.0494 65.1836 65.1836 76.0494 51.6484 76.8713Z" fill="#FD5526"/>
<path d="M54.7401 27.9722L54.0493 31.1956C61.4306 32.7771 67.222 38.5681 68.8038 45.9489L72.0272 45.2579C70.1739 36.6101 63.3882 29.8249 54.7401 27.9722Z" fill="#FD5526"/>
<path d="M45.26 27.9722C36.6119 29.8249 29.8262 36.6103 27.9727 45.2581L31.1963 45.9491C32.7781 38.5683 38.5695 32.7771 45.9506 31.1958L45.26 27.9722Z" fill="#FD5526"/>
<path d="M31.1961 54.0508L27.9727 54.7418C29.826 63.3898 36.6117 70.175 45.26 72.0277L45.9508 68.8043C38.5693 67.2227 32.7777 61.4316 31.1961 54.0508Z" fill="#FD5526"/>
<path d="M68.8036 54.0508C67.2218 61.4316 61.4304 67.2229 54.0493 68.8041L54.7401 72.0275C63.3882 70.1748 70.1739 63.3895 72.0274 54.7416L68.8036 54.0508Z" fill="#FD5526"/>
<path d="M50.0002 42.8572C46.0617 42.8572 42.8574 46.0615 42.8574 50C42.8574 53.9384 46.0617 57.1427 50.0002 57.1427C53.9387 57.1427 57.143 53.9382 57.143 50C57.143 46.0617 53.9387 42.8572 50.0002 42.8572ZM50.0002 53.846C47.8795 53.846 46.1541 52.1205 46.1541 50C46.1541 47.8794 47.8797 46.1539 50.0002 46.1539C52.1207 46.1539 53.8463 47.8794 53.8463 50C53.8463 52.1205 52.1209 53.846 50.0002 53.846Z" fill="#FD5526"/>
</g>
<defs>
<clipPath id="clip0_42_107">
<rect width="100" height="100" fill="white"/>
</clipPath>
</defs>
</svg>
