<svg width="100" height="83" viewBox="0 0 100 83" fill="none" xmlns="http://www.w3.org/2000/svg">
<path fill-rule="evenodd" clip-rule="evenodd" d="M1.19971 0.157029C0.935673 0.265646 0.557865 0.585675 0.359892 0.868302C0.0326971 1.33547 0 4.98903 0 41.1833V80.9844L0.540397 81.6128L1.08102 82.2412L42.4273 82.299C88.4339 82.3632 84.8578 82.4848 85.3142 80.841C85.4699 80.2802 85.5478 70.8003 85.5485 52.2875L85.5498 24.5734H87.4312H89.3127L89.3908 28.5112L89.469 32.4487L90.2004 33.1022C90.9701 33.7897 91.6756 33.914 92.5499 33.5156C93.7111 32.9867 93.7191 32.9224 93.7901 23.8456L93.8562 15.3914H95.8689C98.3791 15.3914 99.3229 15.0422 99.7818 13.9438C100.07 13.2538 100.072 13.0533 99.7927 12.3859C99.6167 11.9649 99.2458 11.4989 98.9686 11.3504C98.2741 10.9786 91.2241 10.9591 90.5379 11.3271C89.6181 11.82 89.4833 12.4124 89.3955 16.3432L89.3118 20.0944H87.4308H85.5498V16.9519C85.5498 13.5303 85.3138 12.519 84.3931 11.994C83.9801 11.7589 81.8436 11.6962 74.2402 11.6962H64.6103L62.5947 12.7828C54.8903 16.936 54.3125 17.291 52.786 18.8067L51.2636 20.3183H47.0365C42.8154 20.3183 42.8083 20.3192 42.1203 20.8982C41.2261 21.6506 41.1629 22.8927 41.9711 23.833L42.5111 24.4615L47.0394 24.5734L51.5675 24.6854L51.924 25.2453C52.12 25.5532 52.6093 26.1245 53.0113 26.5149C53.7508 27.2331 62.7029 32.223 64.23 32.7683C64.7626 32.9584 66.1972 33.0675 68.2495 33.0738L71.4408 33.0836V41.5938V50.104H66.4019H61.363V46.4016C61.363 42.4574 61.1547 41.4097 60.2768 40.9399C59.9709 40.7762 56.3063 40.698 48.9311 40.698H38.0374L37.3828 41.3526L36.7282 42.0072V46.0556V50.104H29.0018H21.2755V44.8758C21.2755 40.178 21.3153 39.6125 21.6674 39.301C22.1283 38.8932 26.3957 37.9082 29.1138 37.5824C30.1608 37.4567 32.588 37.373 34.5077 37.3963C39.7372 37.4599 39.7157 37.4894 39.6002 30.3483L39.5276 25.8795L38.7962 25.2265L38.0647 24.5734H34.5971H31.1294V22.4613V20.3492L34.7081 20.2778C38.2791 20.2066 38.2882 20.205 38.9072 19.5858L39.5276 18.9654L39.6002 14.52C39.6456 11.7269 39.5798 9.73077 39.4232 9.14916C38.9872 7.52932 38.7341 7.46079 32.5951 7.29999C28.2413 7.18578 26.8886 7.0729 25.5306 6.71055C24.6068 6.46375 23.4221 6.19075 22.8978 6.10386C21.5465 5.87946 21.2755 5.38609 21.2755 3.14859C21.2755 1.52538 21.2114 1.2329 20.7351 0.679062L20.1949 0.0506521L10.9372 0.00518913C5.8456 -0.0198935 1.46375 0.0484123 1.19971 0.157029ZM17.0204 22.3339V40.4741H10.6377H4.2551V22.3339V4.19377H10.6377H17.0204V22.3339ZM24.2988 10.7556L26.5384 11.2588L26.5964 22.3794C26.651 32.8272 26.6306 33.5073 26.2604 33.6198C25.802 33.7591 21.7832 34.6513 21.6139 34.6513C21.5509 34.6513 21.4994 29.1589 21.4994 22.4459C21.4994 12.8276 21.5588 10.2418 21.7794 10.2465C21.9334 10.2499 23.0671 10.479 24.2988 10.7556ZM35.1605 13.8237V15.8393H33.145H31.1294V13.8237V11.8082H33.145H35.1605V13.8237ZM81.0708 22.4459V28.8285H74.2402H67.4097V22.4459V16.0632H74.2402H81.0708V22.4459ZM62.9306 22.4645V27.298L60.2992 25.8999C56.73 24.0035 56.0138 23.5314 55.7167 22.879C55.3066 21.9792 56.0322 21.3049 59.475 19.3867C61.191 18.4306 62.6702 17.6444 62.7627 17.6396C62.8551 17.6349 62.9306 19.8059 62.9306 22.4645ZM35.1605 30.9561V33.0836H33.145H31.1294V30.9561V28.8285H33.145H35.1605V30.9561ZM81.0708 41.5938V50.104H78.4953H75.9199V41.7432C75.9199 37.1446 75.987 33.315 76.0692 33.233C76.1512 33.1508 77.3102 33.0836 78.6447 33.0836H81.0708V41.5938ZM17.0204 47.5286V50.104H10.6377H4.2551V47.5286V44.9531H10.6377H17.0204V47.5286ZM56.8839 47.5286V50.104H48.9336H40.9833V47.5286V44.9531H48.9336H56.8839V47.5286ZM81.0708 60.9657V67.3483H75.6887C69.9715 67.3483 69.0541 67.4879 68.5473 68.4345C68.2269 69.0334 68.2515 70.2828 68.5926 70.7271C69.2116 71.5333 69.7603 71.6034 75.4572 71.6034H81.0708V74.8507V78.0981H42.6629H4.2551V71.7293V65.3608L9.94819 65.2907C15.5882 65.2215 15.6467 65.2159 16.2072 64.6887C17.2396 63.7181 17.1713 62.1522 16.0648 61.4273C15.4926 61.0524 13.3791 60.9153 7.55839 60.8761L4.2551 60.8537V57.7184V54.5831H42.6629H81.0708V60.9657ZM21.9301 61.7323C21.1241 62.5383 21.0466 63.6589 21.7449 64.4085C22.7845 65.5242 24.261 65.5057 25.2213 64.3644C26.9361 62.3264 23.8245 59.8379 21.9301 61.7323ZM30.4015 61.3195C30.1859 61.4452 29.852 61.8525 29.6596 62.225C28.8063 63.8746 30.4631 65.6978 32.2496 65.075C33.6226 64.5964 34.004 62.9443 33.013 61.7668C32.5569 61.2244 32.2585 61.079 31.6133 61.0844C31.1623 61.0882 30.617 61.1939 30.4015 61.3195ZM61.5992 67.6321C61.298 67.7846 60.8613 68.235 60.6288 68.6329C59.8291 70.0024 60.8752 71.6034 62.5696 71.6034C64.8022 71.6034 65.5706 68.7019 63.607 67.6865C62.8173 67.2782 62.3246 67.2648 61.5992 67.6321Z" fill="#FD5526"/>
</svg>
