<svg width="100" height="100" viewBox="0 0 100 100" fill="none" xmlns="http://www.w3.org/2000/svg">
<path fill-rule="evenodd" clip-rule="evenodd" d="M24.1516 0.221289C23.4156 0.649023 23.2422 1.57441 23.2422 5.07188V8.39844H12.223C6.1625 8.39844 1.06152 8.45312 0.887695 8.51973C0.059961 8.8373 0 9.39727 0 16.8021V23.8582L0.570898 24.4291L1.1418 25H12.192H23.2422V37.9369V50.874L12.8375 40.476C2.77246 30.4174 2.40879 30.0781 1.6959 30.0781C1.17363 30.0781 0.818945 30.218 0.479492 30.5576L0 31.0369V64.9475V98.8582L0.570898 99.4291L1.1418 100H50H98.8582L99.4291 99.4291L100 98.8582V58.2693V17.6807L91.1598 8.84023L82.3193 0L53.4156 0.00585938C33.2213 0.0101562 24.4031 0.075 24.1516 0.221289ZM80.0781 11.1691C80.0781 18.9588 80.0813 19.0213 80.5027 19.4699L80.9275 19.9219H88.8035H96.6797V58.3008V96.6797H82.8617H69.0436L47.9008 75.5375L26.7578 54.3951V39.6977V25H41.0809H55.4041L61.4422 21.5691C64.7633 19.6822 67.6781 17.9195 67.9199 17.652C68.1617 17.3846 68.3594 16.999 68.3594 16.7951C68.3594 15.7809 67.9451 15.4764 61.7422 11.9305L55.5635 8.39844H41.1605H26.7578V5.85938V3.32031H53.418H80.0781V11.1691ZM88.8672 11.2305L94.2355 16.6016H88.817H83.3984V11.2305C83.3984 8.27637 83.4211 5.85938 83.4486 5.85938C83.4762 5.85938 85.9146 8.27637 88.8672 11.2305ZM11.7188 16.6992V21.6797H7.51953H3.32031V16.6992V11.7188H7.51953H11.7188V16.6992ZM53.3203 16.6992V21.6797H34.1797H15.0391V16.6992V11.7188H34.1797H53.3203V16.6992ZM60.6021 15.1254C62.0828 15.966 63.2693 16.6746 63.2389 16.7002C63.0562 16.8535 57.2631 20.1158 56.9824 20.2234C56.6643 20.3453 56.6406 20.0953 56.6406 16.6031V12.852L57.2754 13.2244C57.6246 13.4293 59.1215 14.2848 60.6021 15.1254ZM62.1982 30.5576C61.7367 31.0189 61.7188 31.1354 61.7188 33.6617C61.7188 37.0855 61.675 37.1055 59.2686 34.7773C57.2613 32.8354 56.7184 32.5768 55.7477 33.0994C55.3965 33.2885 53.476 35.0906 51.4803 37.1041C46.926 41.6986 47.0096 41.3744 49.6729 44.1191C52.117 46.6381 52.1014 46.6797 48.7072 46.6797C46.1937 46.6797 46.0551 46.7006 45.6096 47.1461C45.3529 47.4027 45.0877 47.908 45.0199 48.2691C44.9521 48.6303 44.9244 51.1967 44.9582 53.9723L45.0195 59.0187L45.5676 59.4898C46.0854 59.9352 46.2539 59.9609 48.634 59.9609C52.0879 59.9609 52.1184 60.035 49.6918 62.5355C46.9904 65.3193 46.875 64.9215 51.8166 69.8631C56.7582 74.8047 56.3604 74.6893 59.1441 71.9879C61.6447 69.5613 61.7188 69.5918 61.7188 73.0457C61.7188 75.4258 61.7445 75.5943 62.1898 76.1121L62.6609 76.6602L67.7074 76.7215C70.483 76.7553 73.0494 76.7275 73.4105 76.6598C73.7717 76.592 74.277 76.3268 74.5336 76.0701C74.9789 75.6246 75 75.4855 75 72.9789C75 69.5246 75.0406 69.5084 77.543 71.9668C80.251 74.6273 79.8072 74.7568 84.7064 69.8789C86.8879 67.7066 88.7246 65.7668 88.7877 65.5678C89.0164 64.8475 88.6244 64.1912 86.9023 62.4111C84.5742 60.0047 84.5941 59.9609 88.018 59.9609C90.5443 59.9609 90.6607 59.943 91.1221 59.4814L91.6016 59.0021V53.3199V47.6377L91.0848 47.1586C90.5902 46.7004 90.4563 46.6797 87.9807 46.6797C84.5898 46.6797 84.5646 46.6236 86.8945 44.2479C88.6037 42.5049 89.0203 41.8061 88.7877 41.0729C88.7246 40.8738 86.8879 38.934 84.7064 36.7617C81.8937 33.9611 80.6115 32.8125 80.2986 32.8125C79.5842 32.8125 79.0982 33.1533 77.3318 34.8928C75.0906 37.0998 75 37.0596 75 33.8561C75 31.3354 74.7871 30.4584 74.1123 30.1994C73.9385 30.1328 71.2945 30.0781 68.2369 30.0781H62.6775L62.1982 30.5576ZM71.6797 35.7137C71.6797 37.9006 71.7062 38.0576 72.1586 38.5457C72.4221 38.8299 72.7369 39.0625 72.8584 39.0625C72.9797 39.0625 73.6799 39.3262 74.4141 39.6484C75.1482 39.9707 75.9434 40.2344 76.1809 40.2344C76.4604 40.2344 77.2264 39.634 78.3518 38.5326L80.0908 36.8311L82.4697 39.21L84.8486 41.5889L83.1471 43.3279C82.1125 44.3852 81.4453 45.226 81.4453 45.4727C81.4453 45.6957 81.7736 46.6822 82.1748 47.6648C83.0951 49.9189 83.232 50 86.123 50H88.2812V53.3203V56.6406H86.0461C83.392 56.6406 83.09 56.8061 82.3008 58.6914C81.1469 61.4477 81.1488 61.458 83.2111 63.5707L84.7555 65.1529L82.4174 67.485L80.0793 69.8168L78.4674 68.2211C77.5809 67.3434 76.6326 66.5711 76.3605 66.5051C75.7807 66.3645 72.818 67.5561 72.1191 68.2109C71.7113 68.593 71.6797 68.7895 71.6797 70.9324V73.2422H68.3758H65.0717L65.0066 70.9033C64.95 68.8756 64.8895 68.5129 64.5508 68.1771C64.1439 67.7736 60.949 66.4062 60.4131 66.4062C60.2441 66.4062 59.3426 67.1533 58.4094 68.0664C57.4764 68.9795 56.632 69.7266 56.5334 69.7266C56.2838 69.7266 51.9531 65.3854 51.9531 65.1354C51.9531 65.0236 52.6502 64.2393 53.5021 63.3922C54.3543 62.5453 55.1021 61.6496 55.1643 61.402C55.316 60.7977 54.0279 57.6521 53.3943 57.0801C52.9471 56.676 52.7199 56.6406 50.575 56.6406H48.2422V53.3203V50H50.575C52.717 50 52.9486 49.9641 53.4045 49.5605C54.0332 49.0039 55.3311 45.8119 55.1613 45.2393C55.0938 45.0109 54.3238 44.0988 53.4506 43.2123L51.8629 41.6004L54.1947 39.2623L56.5268 36.9242L58.109 38.4686C58.9791 39.318 59.9314 40.0732 60.225 40.1469C60.9246 40.3225 64.1193 39.0072 64.6588 38.3215C64.985 37.9066 65.0391 37.5223 65.0391 35.6182V33.3984H68.3594H71.6797V35.7137ZM12.5 45.0143C12.5 45.1205 11.6893 46.0217 10.6984 47.0166L8.89668 48.8258L10.0588 50.0002L11.2209 51.1744L13.1301 49.2725L15.0395 47.3703L17.1875 49.5117L19.3357 51.6533L17.4365 53.5598L15.5371 55.4662L16.6992 56.6406L17.8615 57.815L19.7707 55.9131L21.6801 54.0109L23.8281 56.1523L25.9764 58.2939L24.0771 60.2004L22.1777 62.1068L23.3398 63.2812L24.5021 64.4557L26.4113 62.5537L28.3207 60.6516L30.4688 62.793L32.617 64.9346L30.7156 66.8432L28.8143 68.7518L30.0312 69.9688L31.2482 71.1857L33.1568 69.2844L35.0654 67.383L37.207 69.5312L39.3484 71.6793L37.4463 73.5887L35.5443 75.4979L36.7188 76.6602L37.8932 77.8223L39.7996 75.9229L41.7061 74.0236L43.8477 76.1719L45.9891 78.3199L44.0869 80.2293L42.185 82.1385L43.3594 83.3008L44.5338 84.4629L46.4402 82.5635L48.3467 80.6643L50.4883 82.8125L52.6297 84.9605L50.7275 86.8699L48.8256 88.7791L49.9998 89.9412L51.1742 91.1033L52.9834 89.3016C53.9783 88.3107 54.8795 87.5 54.9857 87.5C55.092 87.5 57.243 89.5654 59.7656 92.0898L64.3523 96.6797H33.8363H3.32031V66.1637V35.6477L7.91016 40.2344C10.4346 42.757 12.5 44.908 12.5 45.0143ZM65.874 43.66C62.4365 44.5857 59.5854 47.4408 58.6646 50.8789C58.5207 51.416 58.4031 52.5146 58.4031 53.3203C58.4031 56.0156 59.4082 58.4316 61.3281 60.3516C63.2219 62.2453 65.6623 63.2746 68.2695 63.2789C75.8504 63.2918 80.7303 55.102 77.0564 48.5322C74.8652 44.6141 70.077 42.5279 65.874 43.66ZM70.9328 47.2166C72.0535 47.7135 73.5068 49.025 74.1131 50.0863C75.9975 53.3861 74.59 57.7074 71.0938 59.3566C70.2004 59.7779 69.74 59.8633 68.3594 59.8633C66.9717 59.8633 66.5182 59.7783 65.5961 59.3461C61.7451 57.5406 60.5434 52.7375 63.0799 49.2885C64.7777 46.9797 68.3018 46.05 70.9328 47.2166ZM14.3184 62.4047C13.2814 62.8406 13.2812 62.8426 13.2812 74.3318C13.2812 86.118 13.2779 86.0846 14.4613 86.4971C14.9057 86.652 18.2984 86.7188 25.7225 86.7188C34.8416 86.7188 36.4287 86.6768 36.9209 86.4223C37.4982 86.1236 37.8229 85.4119 37.7211 84.668C37.6486 84.1379 15.8826 62.3621 15.3172 62.2541C15.0748 62.2078 14.6254 62.2756 14.3184 62.4047ZM24.5621 83.352C20.4529 83.3801 16.9809 83.3609 16.8463 83.3094C16.6561 83.2363 16.6016 81.51 16.6016 75.5441V67.8728L24.3174 75.5869L32.0332 83.3008L24.5621 83.352ZM76.7578 91.6992V93.3594H78.418H80.0781V91.6992V90.0391H78.418H76.7578V91.6992ZM83.3984 91.6992V93.3594H85.0586H86.7188V91.6992V90.0391H85.0586H83.3984V91.6992ZM90.0391 91.6992V93.3594H91.6992H93.3594V91.6992V90.0391H91.6992H90.0391V91.6992Z" fill="#FD5526"/>
</svg>
