<svg width="38" height="38" viewBox="0 0 38 38" fill="none" xmlns="http://www.w3.org/2000/svg">
<path d="M9.85684 0.58426C12.225 2.31114 14.0175 4.73739 15.5437 6.96676L16.74 8.72551C17.1114 9.26844 17.2814 9.92416 17.2205 10.5792C17.1595 11.2342 16.8715 11.8473 16.4062 12.3124L13.8637 14.8549L14.1318 15.4249C14.7881 16.7543 15.9206 18.6686 17.625 20.3749C18.8019 21.534 20.1286 22.5304 21.57 23.3374L22.2581 23.7068L22.8712 24.0105L23.145 24.1361L25.6856 21.5936C26.1525 21.1273 26.7683 20.8398 27.4256 20.7812C28.0828 20.7226 28.7398 20.8967 29.2818 21.273L31.1831 22.5911C33.3431 24.1099 35.5987 25.8405 37.3518 28.0868C37.6549 28.4766 37.8477 28.9407 37.91 29.4305C37.9723 29.9203 37.902 30.4178 37.7062 30.8711C36.1368 34.533 32.1656 37.6511 28.035 37.4974L27.4725 37.4674L27.0356 37.4299L26.5518 37.3736L26.025 37.3024L25.4531 37.2068L24.8418 37.0868L24.1931 36.9424L23.5068 36.7661L22.785 36.5599L22.0312 36.3161C18.57 35.1424 14.1768 32.8361 9.66934 28.3286C5.16371 23.823 2.85746 19.4299 1.68371 15.9686L1.43996 15.2149L1.23371 14.493L1.05746 13.8068L0.911213 13.158C0.868971 12.9548 0.829592 12.7511 0.793088 12.5468L0.699338 11.9749L0.624338 11.448L0.569963 10.9643L0.532463 10.5274L0.502463 9.96489C0.350588 5.84739 3.50246 1.84801 7.14746 0.286135C7.58617 0.0966984 8.06659 0.0245739 8.54158 0.0768395C9.01657 0.129105 9.46982 0.303965 9.85684 0.58426ZM8.11871 3.97426C6.10871 5.02426 4.16246 7.42426 4.25059 9.82614L4.28809 10.4411L4.32934 10.8255L4.38371 11.2568L4.45871 11.7311L4.55434 12.2505L4.67621 12.8093L4.82621 13.4093L5.00621 14.0449L5.21996 14.7161C5.29871 14.9449 5.38121 15.1793 5.47121 15.4193L5.75996 16.1543L6.08996 16.9174C7.26746 19.5086 9.18746 22.5424 12.3243 25.6774C15.4593 28.8124 18.4931 30.7343 21.0843 31.9118L21.8475 32.2418L22.5825 32.5305C22.8225 32.6205 23.0568 32.703 23.2856 32.7818L23.9568 32.9955L24.5943 33.1755L25.1925 33.3255L25.7512 33.4474L26.2706 33.543L26.7468 33.618L27.1781 33.6743L27.5606 33.7118L28.1756 33.7493C30.5456 33.8374 32.9643 31.9024 34.0106 29.9186C32.6756 28.353 31.0181 27.0686 29.19 25.7749L27.7875 24.798L27.4312 25.1711L26.67 26.0018L26.2668 26.4255C25.1681 27.5449 23.8856 28.4955 22.3481 27.8749L21.9243 27.6968L21.4068 27.4643L21.1181 27.3274L20.4843 27.0105L19.7887 26.6355C18.0283 25.6559 16.4091 24.4416 14.9756 23.0261C13.5601 21.5926 12.3459 19.9734 11.3662 18.213L10.9912 17.5193L10.6725 16.8836L10.305 16.0774L10.125 15.6499C9.54184 14.208 10.3443 12.9911 11.37 11.9374L11.79 11.5249L12.8343 10.563L13.2093 10.2068L12.3225 8.90739C11.0043 6.99489 9.71621 5.26989 8.11684 3.97239L8.11871 3.97426ZM25.1118 7.32489L25.3293 7.34926C26.6942 7.59 27.9477 8.25665 28.9104 9.25366C29.873 10.2507 30.4953 11.5268 30.6881 12.8993C30.7568 13.374 30.641 13.857 30.3645 14.2489C30.0879 14.6408 29.6717 14.9118 29.2014 15.0062C28.7311 15.1006 28.2426 15.0112 27.8362 14.7564C27.4298 14.5015 27.1366 14.1006 27.0168 13.6361L26.9737 13.4205C26.8983 12.8826 26.6687 12.378 26.3126 11.9677C25.9566 11.5575 25.4894 11.2591 24.9675 11.1086L24.6768 11.043C24.206 10.9596 23.7849 10.6994 23.4995 10.3157C23.2142 9.93203 23.0862 9.45382 23.1418 8.97891C23.1973 8.50399 23.4322 8.06824 23.7984 7.76079C24.1646 7.45333 24.6345 7.2974 25.1118 7.32489ZM25.125 1.62489C28.1086 1.62489 30.9701 2.81015 33.0799 4.91993C35.1897 7.02972 36.375 9.8912 36.375 12.8749C36.3744 13.3528 36.1914 13.8124 35.8634 14.16C35.5353 14.5075 35.0869 14.7166 34.6098 14.7446C34.1328 14.7726 33.663 14.6174 33.2965 14.3106C32.93 14.0039 32.6945 13.5688 32.6381 13.0943L32.625 12.8749C32.6257 10.9707 31.9016 9.13756 30.5999 7.74775C29.2982 6.35793 27.5164 5.5156 25.6162 5.39176L25.125 5.37489C24.6277 5.37489 24.1508 5.17734 23.7991 4.82571C23.4475 4.47408 23.25 3.99717 23.25 3.49989C23.25 3.0026 23.4475 2.52569 23.7991 2.17406C24.1508 1.82243 24.6277 1.62489 25.125 1.62489Z" fill="#FD5526"/>
</svg>
