<svg width="29" height="41" viewBox="0 0 29 41" fill="none" xmlns="http://www.w3.org/2000/svg">
<path d="M14.4997 29.6364C17.8684 26.9142 20.4123 24.294 22.1314 21.776C23.8491 19.2579 24.708 16.893 24.708 14.6812C24.708 12.7756 24.3596 11.1504 23.6627 9.80567C22.9644 8.46225 22.1049 7.37336 21.0841 6.539C20.0632 5.706 18.9573 5.10235 17.7663 4.72804C16.5754 4.35374 15.4865 4.16658 14.4997 4.16658C13.5129 4.16658 12.424 4.35374 11.233 4.72804C10.042 5.10235 8.93613 5.706 7.9153 6.539C6.89447 7.37336 6.03561 8.46225 5.33872 9.80567C4.64047 11.1504 4.29134 12.7756 4.29134 14.6812C4.29134 16.893 5.1502 19.2579 6.86792 21.776C8.58701 24.294 11.1309 26.9142 14.4997 29.6364ZM14.4997 34.7916C9.70176 31.2527 6.11999 27.8159 3.75438 24.4812C1.39013 21.1464 0.208008 17.8798 0.208008 14.6812C0.208008 12.2652 0.642202 10.1466 1.51059 8.32546C2.37762 6.50565 3.49169 4.98325 4.8528 3.75825C6.21391 2.53325 7.74516 1.6145 9.44655 1.002C11.1479 0.389502 12.8323 0.083252 14.4997 0.083252C16.167 0.083252 17.8514 0.389502 19.5528 1.002C21.2542 1.6145 22.7854 2.53325 24.1466 3.75825C25.5077 4.98325 26.6224 6.50565 27.4908 8.32546C28.3578 10.1466 28.7913 12.2652 28.7913 14.6812C28.7913 17.8798 27.6085 21.1464 25.2429 24.4812C22.8787 27.8159 19.2976 31.2527 14.4997 34.7916ZM14.4997 18.4583C15.6226 18.4583 16.5842 18.0581 17.3846 17.2577C18.1835 16.4588 18.583 15.4978 18.583 14.3749C18.583 13.252 18.1835 12.2904 17.3846 11.49C16.5842 10.6911 15.6226 10.2916 14.4997 10.2916C13.3768 10.2916 12.4158 10.6911 11.6168 11.49C10.8165 12.2904 10.4163 13.252 10.4163 14.3749C10.4163 15.4978 10.8165 16.4588 11.6168 17.2577C12.4158 18.0581 13.3768 18.4583 14.4997 18.4583ZM0.208008 40.9166V36.8332H28.7913V40.9166H0.208008Z" fill="#FD5526"/>
</svg>
