<svg width="100" height="100" viewBox="0 0 100 100" fill="none" xmlns="http://www.w3.org/2000/svg">
<path fill-rule="evenodd" clip-rule="evenodd" d="M4.412 0.248133C3.15007 0.712878 1.96272 2.01587 1.33611 3.62353C0.290984 6.30489 0.098582 7.36668 0.118814 10.3438C0.135079 12.7593 0.207479 13.353 0.675397 14.9059C2.00477 19.3165 4.61749 22.6055 8.73097 25.0458C11.646 26.7751 12.9311 28.7705 12.9313 31.5677C12.9315 32.3859 12.7941 33.3228 12.5967 33.8488C11.4923 36.7938 11.0862 38.2292 10.8922 39.874C10.1212 46.4122 13.5018 53.0669 19.2924 56.4104C22.4734 58.247 23.6667 60.0379 23.6873 63.0069C23.697 64.372 23.5931 64.9898 23.1422 66.2532C22.709 67.4669 22.6152 67.9955 22.7203 68.6334C23.0184 70.4456 23.941 71.7638 25.4885 72.589C26.5234 73.1408 28.7255 73.1787 29.7746 72.663C31.4834 71.8228 32.5886 70.0153 33.3487 66.8171C34.9501 60.08 31.9283 52.5112 26.1927 48.8924C23.1535 46.9749 22.7326 46.6345 22.0011 45.5025C20.6176 43.3619 20.4775 40.9199 21.5891 38.3118C22.6818 35.7478 22.8967 34.6138 22.8857 31.4685C22.8768 28.9353 22.8124 28.3841 22.3448 26.8455C20.9653 22.3046 18.3726 19.0696 14.155 16.6269C12.4255 15.6254 11.0664 14.1583 10.5235 12.707C9.92863 11.1174 9.9683 9.05507 10.627 7.32344C11.2136 5.78183 11.3012 4.14897 10.8549 3.08083C10.4432 2.09521 9.4024 0.970739 8.45466 0.487151C7.39941 -0.0511831 5.52556 -0.161865 4.412 0.248133ZM40.3651 0.409596C39.5457 0.775362 38.7097 1.7108 38.4768 2.52247C38.3679 2.90251 38.2844 5.94587 38.2868 9.4498C38.2917 16.4489 38.359 16.847 39.6973 17.8017C40.3231 18.248 40.5615 18.2819 43.4892 18.3412L46.6133 18.4045L46.6137 22.8042L46.6141 27.2039L52.5284 37.32C57.7485 46.2483 58.5286 47.4827 59.1725 47.8328L59.9021 48.2295L59.9025 62.5513C59.9029 72.7582 59.9673 77.0141 60.1268 77.364C60.4489 78.0711 65.8781 81.6522 66.6279 81.6522C67.0258 81.6522 68.1038 81.0599 70.0864 79.752C72.3466 78.2607 73.0125 77.7206 73.1789 77.243C73.3221 76.8324 73.3912 71.9927 73.3912 62.3823C73.3912 51.1167 73.4431 48.1287 73.6391 48.1232C73.7756 48.1192 74.1243 47.9185 74.4145 47.6769C74.8576 47.3077 84.9505 30.3314 86.257 27.7573C86.6509 26.9812 86.6809 26.6208 86.6809 22.6497V18.3771H89.5767C92.9307 18.3771 93.545 18.1913 94.3848 16.923L94.9126 16.126L94.9725 9.8229C95.0368 3.04473 94.9646 2.35942 94.0736 1.3006C93.0292 0.0592999 94.6428 0.127733 66.6039 0.136262C45.6205 0.14261 40.8521 0.192398 40.3651 0.409596ZM7.24886 3.98751C7.86138 4.59983 7.8598 5.10623 7.23994 6.95291C6.37511 9.52894 6.63357 12.7546 7.89114 15.0791C8.69943 16.5731 10.3989 18.2934 11.98 19.2178C16.1008 21.6264 18.2056 24.3075 19.265 28.4972C19.6129 29.8726 19.6708 30.5472 19.5877 32.259C19.4867 34.3413 19.3822 34.7549 18.0584 38.3114C16.7546 41.8139 17.7174 46.1807 20.3908 48.8892C21.0283 49.5353 22.2568 50.4534 23.2075 50.9949C25.6119 52.364 27.8085 54.6226 28.9098 56.8579C30.0935 59.261 30.4054 60.7929 30.3018 63.7011C30.2336 65.6198 30.1156 66.3698 29.6925 67.569C29.4041 68.3873 28.9772 69.213 28.7443 69.4038C27.8823 70.1104 26.4307 69.6547 26.0864 68.5695C26.0132 68.3389 26.1828 67.5201 26.4857 66.6427C27.2355 64.4704 27.3281 62.7092 26.8022 60.6292C26.0416 57.6214 24.3514 55.4803 21.4034 53.7906C19.3314 52.6028 16.846 50.1573 15.9082 48.3832C13.7983 44.3925 13.6129 40.6914 15.2991 36.229C15.7319 35.0835 16.1552 33.5885 16.2393 32.9066C16.4154 31.4808 16.2125 29.4314 15.7605 28.0699C15.023 25.8499 13.0378 23.6089 10.6013 22.2464C5.83856 19.5829 3.12408 14.7484 3.42697 9.46864C3.56423 7.07688 4.33424 4.50204 5.09017 3.90738C5.79255 3.35496 6.64825 3.3867 7.24886 3.98751ZM45.0265 5.49302C45.0265 7.34426 45.061 7.52021 45.5134 7.97245C46.1438 8.60302 47.0154 8.6062 47.7427 7.98098C48.2735 7.52477 48.3025 7.40972 48.3675 5.50155L48.4356 3.50055H49.9853H51.5351L51.6031 5.50155C51.6682 7.40972 51.6971 7.52477 52.2279 7.98098C52.9553 8.6062 53.8269 8.60302 54.4572 7.97245C54.9097 7.52021 54.9442 7.34426 54.9442 5.49302V3.50055H56.6302H58.3162L58.3206 5.43451C58.3257 7.68841 58.5727 8.19878 59.7499 8.38999C60.3803 8.49214 60.562 8.42609 61.0841 7.90402C61.6734 7.31471 61.6882 7.25282 61.6882 5.40019V3.50055H63.2521H64.8157L64.8964 5.5081C64.9728 7.40873 65.0063 7.54084 65.5256 7.98753C66.2448 8.6062 67.1194 8.60025 67.747 7.97245C68.1994 7.52021 68.2339 7.34426 68.2339 5.49302V3.50055H69.92H71.606V5.27642C71.606 7.24906 71.8128 7.91255 72.5297 8.23924C73.1376 8.51614 73.4463 8.51614 74.0543 8.23924C74.7711 7.91255 74.978 7.24906 74.978 5.27642V3.50055H76.664H78.35V5.49302C78.35 7.34426 78.3845 7.52021 78.837 7.97245C79.4646 8.60025 80.3391 8.6062 81.0583 7.98753C81.5776 7.54084 81.6112 7.40873 81.6875 5.5081L81.7682 3.50055H83.3319H84.8957V5.40019C84.8957 7.23537 84.9153 7.31947 85.4755 7.87962C86.2041 8.60818 87.0211 8.6419 87.7429 7.97305C88.2433 7.5091 88.2677 7.39405 88.2677 5.49362V3.50055H89.9538H91.6398V9.35201V15.2035H66.6471H41.6544V9.35201V3.50055H43.3405H45.0265V5.49302ZM83.3089 21.7492V25.1212H73.8254C64.5727 25.1212 64.3311 25.1309 63.91 25.5235C63.0061 26.3655 63.1828 27.6879 64.2728 28.2395C64.6419 28.4262 66.8814 28.4881 73.358 28.4902C78.0856 28.4918 81.9238 28.5678 81.8873 28.6588C81.851 28.7499 79.679 32.4978 77.0607 36.9871L72.3002 45.15L66.6394 45.1524L60.9787 45.155L56.1762 36.9259C53.5349 32.3998 51.3738 28.6573 51.3738 28.6093C51.3738 28.5611 52.7206 28.493 54.3668 28.4579L57.3597 28.394L57.838 27.8375C58.4519 27.1232 58.4489 26.3141 57.8298 25.646L57.3433 25.1212H53.6644H49.9853V21.7492V18.3771H66.6471H83.3089V21.7492ZM37.1915 26.8935C35.124 27.3967 33.6012 29.1793 33.388 31.3452C33.3144 32.0924 33.4196 32.7808 33.7849 33.948C34.77 37.0939 34.6767 38.3193 33.3491 39.6774C32.2546 40.7971 31.7454 42.001 31.7454 43.469C31.7454 44.9152 32.2027 46.0079 33.222 46.9979C34.2743 48.0198 35.3757 48.3919 37.0659 48.2965C38.282 48.2277 38.5829 48.1259 39.5626 47.4511C41.6298 46.0275 43.4515 43.1621 44.1438 40.2459C44.8618 37.2204 44.1825 32.1606 42.6902 29.4187C41.5802 27.3795 39.3682 26.3637 37.1915 26.8935ZM39.3216 30.4714C39.6576 30.7358 40.0045 31.4285 40.3897 32.6037C40.9051 34.1761 40.96 34.6039 40.9572 37.0225C40.9544 39.3617 40.8955 39.8464 40.4911 40.8555C39.8859 42.3653 38.3725 44.335 37.4573 44.8035C36.7936 45.1435 36.671 45.15 36.0263 44.8807C35.5394 44.6772 35.276 44.4131 35.1748 44.0275C34.9405 43.1344 35.0893 42.7525 36.1037 41.6425C36.6894 41.0016 37.1966 40.1939 37.4152 39.5539C37.9032 38.1247 37.8488 35.7587 37.2867 33.948C36.5284 31.5052 36.5787 30.8985 37.5882 30.3197C38.1781 29.9813 38.7636 30.0326 39.3216 30.4714ZM69.9705 49.618L70.0211 50.8081L66.6481 53.0402L63.2751 55.2723V51.7957V48.3191L66.5975 48.3735L69.92 48.4278L69.9705 49.618ZM3.73323 53.5567C1.62512 54.1414 -0.00476181 56.266 0.00237895 58.4201C0.0122967 61.4466 2.55044 65.5397 5.72669 67.6512C8.24262 69.3237 12.7869 70.7175 14.926 70.4726C19.0954 69.9953 20.9129 65.0049 18.0021 62.0274C17.1454 61.1513 16.2155 60.7201 14.5791 60.4402C13.0997 60.1871 11.8511 59.7102 10.9063 59.0376C10.4743 58.73 10.2234 58.2809 9.92665 57.2848C9.06063 54.3767 6.44751 52.8037 3.73323 53.5567ZM47.1003 53.7745C46.7718 54.1028 46.6133 54.4836 46.6133 54.9444C46.6133 55.5341 47.1223 56.2614 50.3324 60.2595C53.7513 64.5172 54.1063 64.8964 54.7306 64.9559C55.1041 64.9916 55.613 64.9119 55.8616 64.7788C56.4465 64.4658 56.7734 63.5454 56.5286 62.9012C56.2736 62.2307 49.3079 53.5728 48.8962 53.4149C48.241 53.1633 47.5785 53.296 47.1003 53.7745ZM83.6699 54.0313C82.3449 55.4581 76.7562 62.6679 76.6513 63.0858C76.5134 63.6351 76.9943 64.6862 77.4663 64.8673C78.1142 65.1158 78.9352 64.9793 79.4084 64.5441C80.0198 63.9822 86.1362 56.315 86.4685 55.6944C87.3252 54.0934 84.9326 52.6718 83.6699 54.0313ZM70.014 57.0067L70.0086 59.139L66.6419 61.3711L63.2751 63.6031V61.4508V59.2987L66.5975 57.0872C68.4248 55.8709 69.9422 54.8753 69.9695 54.875C69.9969 54.8748 70.0167 55.8338 70.014 57.0067ZM35.5757 55.5432C34.5728 56.4059 35.0034 58.0609 36.305 58.3469C36.9421 58.4868 37.9676 58.0425 38.1592 57.5432C38.424 56.8531 38.2747 56.0387 37.7955 55.5597C37.1683 54.9325 36.2933 54.9259 35.5757 55.5432ZM95.4988 55.5597C94.9005 56.1577 94.8499 57.2092 95.3873 57.8727C95.6735 58.2262 95.9619 58.3366 96.5986 58.3366C97.6426 58.3366 98.1855 57.7602 98.1855 56.652C98.1855 55.2338 96.507 54.5514 95.4988 55.5597ZM6.18271 57.1874C6.365 57.3514 6.61849 57.9217 6.74643 58.4547C7.39485 61.1576 10.2728 63.2144 14.1209 63.7249C15.3719 63.8908 16.0667 64.4858 16.0667 65.3911C16.0667 66.8264 15.1959 67.3181 13.2659 66.9726C8.92 66.1942 5.73106 64.1288 4.25054 61.133C3.375 59.3617 3.19133 58.2541 3.65547 57.5456C4.24498 56.6461 5.4002 56.4822 6.18271 57.1874ZM40.9235 60.2238C40.3653 60.4584 40.0676 61.0265 40.0676 61.857C40.0676 62.4622 40.67 63.1199 47.1651 69.6059C53.8237 76.2548 54.3063 76.6934 54.9656 76.6934C55.8995 76.6934 56.6104 75.9581 56.6104 74.9923C56.6104 74.3387 56.1597 73.8436 49.5787 67.2654C42.2765 59.9663 42.0244 59.7612 40.9235 60.2238ZM83.868 67.1118C79.0266 71.9463 76.7398 74.3649 76.658 74.7368C76.4321 75.7654 77.2212 76.6767 78.3468 76.687C78.9937 76.693 79.4933 76.2381 86.1323 69.599C92.4588 63.2727 93.2266 62.4372 93.2266 61.8794C93.2266 61.5355 93.1711 61.1096 93.1034 60.9331C92.9499 60.533 92.0069 60.0316 91.4081 60.0316C91.0814 60.0316 89.0169 61.9701 83.868 67.1118ZM70.014 65.3376L70.0086 67.4699L66.6419 69.702L63.2751 71.934V69.7817V67.6295L66.5975 65.4181C68.4248 64.2018 69.9422 63.2062 69.9695 63.2058C69.9969 63.2056 70.0167 64.1647 70.014 65.3376ZM70.0154 73.6684L70.0116 75.8008L68.3012 76.9236L66.5908 78.0465L65.0369 77.0228C64.1824 76.4597 63.5038 75.9309 63.5288 75.8474C63.5659 75.7246 69.7984 71.5574 69.9695 71.5409C69.9969 71.5383 70.0173 72.4956 70.0154 73.6684ZM0.838842 75.2392C0.700192 75.2952 0.454629 75.5961 0.293367 75.9081C0.0446305 76.3891 0 78.1792 0 87.6812V98.8868L0.478628 99.4434L0.957456 100H49.9627H98.9678L99.4196 99.5483L99.8715 99.0967L99.928 87.9446C99.9591 81.8109 99.9345 76.5894 99.8733 76.3413C99.8122 76.0929 99.586 75.7137 99.3706 75.4983C98.9936 75.1212 98.68 75.1065 90.9681 75.1065H82.9574L81.8934 75.6621C81.0149 76.1207 80.622 76.5198 79.6393 77.9511C78.3365 79.8488 77.1633 80.8491 74.9084 81.9847C71.0666 83.9196 66.0491 85.2855 59.6055 86.1505C56.2847 86.5962 44.5294 86.6569 41.1586 86.2457C30.8888 84.9927 22.8209 81.9741 20.7088 78.5944C19.4348 76.5555 19.0631 76.1443 18.0294 75.6292L16.9805 75.1065L9.03584 75.1222C4.66609 75.1307 0.977492 75.1835 0.838842 75.2392ZM16.6532 78.6723C16.8526 78.779 17.2856 79.3447 17.6157 79.9297C20.4263 84.91 30.2931 88.721 43.1032 89.7742C46.3731 90.0432 53.6099 90.0424 56.8674 89.773C69.6964 88.7118 79.5471 84.9048 82.3598 79.9212C82.6872 79.341 83.1181 78.779 83.3174 78.6723C83.5318 78.5575 86.3124 78.4785 90.139 78.4785H96.5986V87.6028V96.7271H49.9853H3.37203V87.6028V78.4785H9.83164C13.6583 78.4785 16.4388 78.5575 16.6532 78.6723ZM7.63665 90.2122C6.61096 90.7731 6.41558 92.0529 7.23101 92.8682C7.66045 93.2978 7.88836 93.3543 9.16497 93.3488C10.6629 93.3422 11.071 93.1792 11.4722 92.426C11.8441 91.7274 11.742 91.1817 11.1231 90.5629C10.6026 90.0424 10.415 89.9837 9.28834 89.9891C8.59807 89.9924 7.85484 90.0928 7.63665 90.2122ZM15.9675 90.2122C14.9418 90.7731 14.7465 92.0529 15.5619 92.8682L16.0487 93.3551H22.5132H28.9778L29.4646 92.8682C30.2832 92.0498 30.0701 90.772 29.0224 90.2138C28.4367 89.902 16.5376 89.9004 15.9675 90.2122Z" fill="#FD5526"/>
</svg>
