<svg width="100" height="99" viewBox="0 0 100 99" fill="none" xmlns="http://www.w3.org/2000/svg">
<path fill-rule="evenodd" clip-rule="evenodd" d="M74.8971 0.140611C73.7862 0.320693 72.2479 1.05419 71.3264 1.843C70.5068 2.54456 69.3054 4.31905 68.8706 5.46966C68.4468 6.5918 68.4408 9.07971 68.8594 10.2797L69.1592 11.1391L64.8492 16.0822L60.5393 21.0252H59.2408H57.9424V22.7536V24.482H60.067H62.1918L66.7537 19.2386L71.3157 13.9951L72.2222 14.5409C73.7054 15.4341 74.6072 15.6723 76.4609 15.6604C78.3677 15.6481 79.4202 15.3372 80.9174 14.3434C81.9595 13.6517 83.106 12.2277 83.7547 10.8195C84.3195 9.59378 84.4584 7.00695 84.0303 5.69024C83.3409 3.56958 81.8405 1.79394 79.951 0.862586C78.2589 0.0285124 76.8392 -0.174286 74.8971 0.140611ZM35.2245 6.90999C35.2219 11.9046 35.3888 11.4591 33.2765 12.1111C31.5256 12.6516 28.2532 14.0162 27.2691 14.6163C26.983 14.7908 26.6509 14.9337 26.531 14.934C26.4112 14.9344 24.9667 13.8379 23.3212 12.4975C21.6756 11.1571 20.2446 10.0094 20.1412 9.94736C19.9779 9.84925 14.0757 15.6837 9.00691 20.9539L7.57136 22.4465L10.2741 25.5041L12.9766 28.5615L11.8793 30.7643C10.9539 32.6218 10.404 33.9498 9.52132 36.4573L9.39095 36.8277H4.69547H0V46.4573V56.087H4.53021H9.06058L9.20428 56.4573C9.28329 56.6611 9.68346 57.869 10.0935 59.1418C10.5035 60.4147 11.3335 62.5429 11.9379 63.8713L13.0367 66.2865L10.4565 69.6009C9.03737 71.4237 7.83852 73.0137 7.79226 73.1344C7.70617 73.3586 19.8744 85.9283 20.0956 85.8435C20.1597 85.819 21.6235 84.497 23.3486 82.9059L26.4853 80.0129L28.757 81.1283C30.0066 81.7418 31.9177 82.5409 33.0041 82.9042L34.9794 83.565L35.0907 84.2703C35.1519 84.6583 35.2074 86.7722 35.2142 88.9676L35.2263 92.9594H43.9506H52.6749V86.8688V80.7783H50.9465H49.2181V85.1404V89.5026H43.9506H38.6831V85.1706V80.8386L37.4074 80.5413C34.1475 79.7816 30.0489 78.083 27.5044 76.4369C26.857 76.0181 26.2523 75.6754 26.161 75.6754C26.0696 75.6754 24.7309 76.842 23.186 78.268C21.6413 79.694 20.2925 80.8606 20.1886 80.8606C19.9959 80.8606 12.3457 73.176 12.3457 72.9823C12.3457 72.9237 13.2555 71.7093 14.3676 70.2838C15.4797 68.8583 16.5942 67.4209 16.8446 67.0899L17.2998 66.4879L16.7965 65.6702C15.1893 63.0581 13.2945 58.2423 12.4265 54.5643L11.9702 52.6302H7.79572H3.6214V46.4573V40.2845H7.87424H12.1271L12.5755 38.6122C13.3486 35.7289 14.6344 32.7752 16.4672 29.6725C17.1916 28.446 17.2782 28.2101 17.0925 27.9702C16.8252 27.6254 13.4448 23.7622 12.8038 23.0692L12.3345 22.5618L16.2244 18.5836C18.3638 16.3956 20.1702 14.6055 20.2387 14.6055C20.3073 14.6055 21.6734 15.6741 23.2746 16.9803L26.1858 19.3549L27.5373 18.5159C30.105 16.922 33.0081 15.7429 36.7078 14.7911L38.6008 14.3042L38.6451 10.6688L38.6894 7.03345H43.9537H49.2181V9.6672V12.3009H50.9465H52.6749V7.8565V3.41205H43.9506H35.2263L35.2245 6.90999ZM78.5969 4.06802C79.878 4.85979 80.6642 6.13831 80.7834 7.6239C80.9812 10.0881 79.0043 12.1638 76.4364 12.1879C75.6782 12.1951 75.1802 12.0939 74.5733 11.8096C74.1177 11.5962 73.7449 11.3776 73.7449 11.3238C73.7449 11.2702 74.3745 10.4983 75.144 9.60892C75.9136 8.71938 76.5432 7.93337 76.5432 7.86193C76.5432 7.79065 75.9812 7.22917 75.2942 6.61436L74.0453 5.49666L73.36 6.29798C72.9832 6.73864 72.5477 7.25106 72.3923 7.43674C72.1121 7.77139 72.1096 7.77041 72.1042 7.31625C72.0917 6.26703 73.0528 4.79082 74.1776 4.13156C75.4593 3.38061 77.4385 3.35213 78.5969 4.06802ZM84.9238 17.8063C82.8892 18.3674 80.9159 19.9798 79.9116 21.9016L79.4239 22.8351L75.9261 22.8356L72.4285 22.8359L68.3765 28.9144L64.3246 34.993L54.0965 35.0563C42.425 35.1288 42.6749 35.1016 39.8193 36.6073C37.4372 37.8631 35.6785 39.7049 34.3399 42.3451C33.4681 44.0642 33.1913 45.3214 33.1984 47.5273C33.2038 49.1943 33.2635 49.5911 33.6988 50.8514C34.6731 53.6723 36.7901 56.3722 39.1335 57.7824C41.5417 59.2318 43.564 59.7046 47.3663 59.707L49.2181 59.7084V57.8977V56.087H46.684C43.7875 56.087 42.7551 55.859 41.07 54.8478C39.7778 54.0721 39.1592 53.4637 38.1807 52.0056C36.1834 49.0293 36.1909 45.6907 38.2015 42.6846C39.1399 41.2817 39.974 40.5046 41.4028 39.7024C43.2782 38.6494 43.3564 38.6435 55.3217 38.6409L66.1167 38.6384L70.2188 32.5067L74.321 26.375H76.6953H79.0698L79.2556 27.1981C79.7434 29.3569 81.479 31.5167 83.4861 32.4623C87.6408 34.4193 92.1412 32.7885 94.1411 28.6012C94.719 27.3908 94.7325 27.3174 94.7325 25.3717C94.7325 23.3819 94.7322 23.3803 94.0877 22.111C92.9618 19.8935 91.1738 18.3959 88.9654 17.8208C87.8176 17.5218 85.9788 17.5153 84.9238 17.8063ZM43.0453 21.2038C40.1439 21.4651 36.4031 22.6468 33.5442 24.2051C29.24 26.5513 25.1412 30.5931 22.6634 34.9347C21.1979 37.5023 19.9784 41.153 19.576 44.1765C19.2662 46.5047 19.4634 50.6973 19.9789 52.7436C21.1546 57.4093 23.1095 60.8022 26.6509 64.3232C30.1921 67.844 34.6808 70.2134 40.0823 71.413C41.6222 71.7551 42.2199 71.7829 49.3439 71.8456L56.9593 71.9128L57.3694 72.4361C57.5951 72.7238 59.7663 75.8112 62.1946 79.2968L66.6096 85.6343L66.1238 86.4265C63.7929 90.228 65.306 95.3434 69.3827 97.444C72.5077 99.0542 76.8711 98.1291 78.9623 95.4129C80.1612 93.8557 80.6942 92.4952 80.7847 90.7605C80.853 89.453 80.8091 89.0998 80.45 88.0679C79.9779 86.7105 78.8263 85.0004 77.8797 84.2506C75.7552 82.5679 72.336 82.0507 70.0426 83.0652L69.3118 83.3885L64.1044 75.9107L58.897 68.4326L51.7118 68.4284C43.6537 68.4236 42.2444 68.3307 39.4239 67.6191C37.0191 67.0124 33.1957 65.1954 31.1905 63.7064C27.8726 61.2428 25.0316 57.2585 23.8207 53.3709C23.0836 51.0045 22.9687 50.1936 22.9692 47.3627C22.9699 43.7283 23.5057 41.319 25.063 37.9495C26.1032 35.6991 28.4035 32.5969 30.4813 30.6423C33.9969 27.3355 40.2278 24.6497 44.3898 24.6471C45.7837 24.6463 45.7613 24.6776 45.7613 22.736V21.0252L45.144 21.0479C44.8046 21.0603 43.8601 21.1306 43.0453 21.2038ZM49.2181 22.7536V24.482H50.9465H52.6749V22.7536V21.0252H50.9465H49.2181V22.7536ZM89.0816 21.6326C89.9712 22.1167 90.5554 22.7974 91.0596 23.937C91.9649 25.9837 90.7378 28.6481 88.4951 29.5046C87.4025 29.9218 85.7121 29.7803 84.6989 29.1865C83.9589 28.7528 82.9602 27.479 82.7203 26.6631L82.6115 26.2927H85.2565H87.9012V24.5643V22.8359H85.6504H83.3993L83.7957 22.4142C85.1289 20.9949 87.3161 20.6716 89.0816 21.6326ZM90.1913 38.8763C87.5432 39.6066 85.2247 41.9523 84.5519 44.5816L84.3246 45.4697L74.6726 45.5121L65.0206 45.5546V47.364V49.1734H74.8874H84.7544L85.2989 50.1956C87.8059 54.9009 94.2914 55.7979 97.8685 51.934C98.4372 51.3199 99.054 50.4135 99.4086 49.6711C99.9865 48.4608 100 48.3874 100 46.4417C100 44.4519 99.9997 44.4502 99.3552 43.1809C98.2293 40.9635 96.4413 39.4659 94.2329 38.8907C93.0851 38.5918 91.2463 38.5852 90.1913 38.8763ZM94.3491 42.7026C95.8216 43.5039 96.717 45.1373 96.5852 46.7813C96.495 47.9049 96.215 48.5503 95.4303 49.4441C94.0064 51.0659 91.2515 51.2879 89.4647 49.925C89.148 49.6835 88.8889 49.4155 88.8889 49.3296C88.8889 49.2437 89.4445 49.1734 90.1235 49.1734H91.358V47.3627V45.552H89.6275H87.8968L88.1511 44.9436C88.7105 43.6046 89.945 42.4967 91.1603 42.2427C92.1468 42.0366 93.4784 42.2285 94.3491 42.7026ZM49.2181 47.3627V49.1734H50.9465H52.6749V47.3627V45.552H50.9465H49.2181V47.3627ZM58.0575 45.6563C57.9942 45.7197 57.9424 46.5395 57.9424 47.4779V49.1846L59.7119 49.1378L61.4815 49.0911V47.3627V45.6343L59.827 45.5877C58.9172 45.5622 58.1208 45.593 58.0575 45.6563ZM52.7847 56.1967C52.7243 56.257 52.6749 57.0718 52.6749 58.0074V59.7084H55.3086H57.9424V57.8977V56.087H55.4184C54.0301 56.087 52.8449 56.1363 52.7847 56.1967ZM61.5638 57.8917V59.6965L63.1141 59.7436L64.6642 59.7907L68.5875 64.9758L72.5108 70.161L75.784 70.2433L79.0574 70.3256L79.2785 71.1897C79.9589 73.8507 82.051 76.0521 84.6593 76.8512C85.5626 77.1281 86.0927 77.1819 87.398 77.1294C88.9072 77.0688 89.1115 77.0173 90.4234 76.3673C92.1164 75.5284 93.2104 74.4022 94.1249 72.5564C94.7243 71.3469 94.7325 71.3034 94.7325 69.338C94.7325 67.3595 94.7281 67.3367 94.1012 66.0684C92.9707 63.7809 90.9419 62.1614 88.5957 61.6738C88.0568 61.5618 87.0652 61.5149 86.2762 61.564C83.7284 61.7225 81.361 63.2797 79.9993 65.6924L79.4703 66.6298L76.8262 66.5847L74.1821 66.5396L70.2234 61.3133L66.2649 56.087H63.9142H61.5638V57.8917ZM89.1095 65.5977C91.0573 66.6567 91.8838 69.1655 90.9381 71.1487C89.6232 73.9064 85.9007 74.5403 83.8449 72.3566C83.4035 71.8876 82.6338 70.6038 82.6338 70.3363C82.6338 70.2897 83.8003 70.2313 85.2263 70.2063L87.8189 70.161V68.4326V66.7042L85.7062 66.6219L83.5933 66.5396L83.9778 66.191C85.4189 64.8841 87.3798 64.6575 89.1095 65.5977ZM75.1052 86.6078C76.6685 87.524 77.5771 89.4682 77.2267 91.1465C76.9628 92.4098 76.091 93.617 75.0173 94.2058C74.2877 94.606 73.9681 94.6784 72.9215 94.6807C71.8425 94.6832 71.573 94.6193 70.786 94.1745C69.7751 93.6035 68.9217 92.5156 68.6267 91.4224C68.4505 90.7694 68.5111 89.3536 68.7304 88.9989C68.787 88.9072 69.4998 89.7936 70.3144 90.9684L71.7954 93.1046L73.1745 92.1678C73.9328 91.6525 74.5567 91.166 74.5607 91.0863C74.5646 91.0068 73.8923 89.9697 73.0665 88.7818C72.2408 87.5939 71.5317 86.5358 71.4907 86.4305C71.3817 86.151 71.8672 86.0588 73.1758 86.1106C74.0887 86.1469 74.4988 86.2525 75.1052 86.6078Z" fill="#FD5526"/>
</svg>
