<svg width="319" height="65" viewBox="0 0 319 65" fill="none" xmlns="http://www.w3.org/2000/svg">
<path d="M85.2446 34.8475V39.5821H80.3159V24.2666H91.1218C93.6104 24.2666 95.4045 24.7469 96.5043 25.7076C97.4393 26.531 97.9065 27.7593 97.9065 29.3924V29.6394C97.9065 31.2862 97.4324 32.5282 96.4835 33.3653C95.3561 34.3534 93.5689 34.8475 91.1218 34.8475H85.2446ZM85.2446 31.1833H90.7096C92.098 31.1833 92.7924 30.648 92.7924 29.5776V29.5159C92.7924 28.4729 92.098 27.9514 90.7096 27.9514H85.2446V31.1833Z" fill="white"/>
<path d="M111.529 36.186C111.172 36.8035 110.828 37.3182 110.498 37.7299C110.168 38.1279 109.797 38.4573 109.385 38.718C108.945 39.0062 108.443 39.2258 107.879 39.3768C107.315 39.514 106.648 39.5826 105.879 39.5826H102.166V35.8155H104.889C105.164 35.8155 105.301 35.7057 105.301 35.4861V35.4655C105.301 35.3557 105.274 35.2459 105.219 35.1362C105.177 35.0264 105.102 34.8823 104.992 34.7039L98.4546 24.2671H104.043L108.766 32.0895L113.2 24.2671H118.561L111.529 36.186Z" fill="white"/>
<path d="M127.824 39.8296C125.487 39.8296 123.583 39.3973 122.112 38.5327C120.833 37.7779 119.905 36.7761 119.328 35.5272C118.833 34.4842 118.585 33.3726 118.585 32.1924V31.5748C118.585 30.3946 118.833 29.283 119.328 28.24C119.933 26.9637 120.854 25.9756 122.091 25.2757C123.576 24.4386 125.487 24.02 127.824 24.02H128.773C132.072 24.02 134.492 24.7062 136.032 26.0786C136.664 26.6412 137.118 27.2794 137.393 27.993C137.681 28.7066 137.826 29.4477 137.826 30.2162V30.3192H132.753C132.712 30.1407 132.657 29.9554 132.588 29.7633C132.492 29.4751 132.279 29.1938 131.949 28.9193C131.632 28.6449 131.199 28.4047 130.65 28.1989C130.086 27.9793 129.302 27.8695 128.299 27.8695C126.635 27.8695 125.418 28.2881 124.648 29.1252C124.03 29.7976 123.72 30.6622 123.72 31.7189V31.9865C123.72 32.4394 123.796 32.8923 123.947 33.3452C124.098 33.798 124.339 34.2098 124.669 34.5803C125.48 35.4861 126.697 35.9389 128.319 35.9389C130.01 35.9389 131.234 35.5753 131.99 34.8479C132.279 34.5871 132.478 34.3058 132.588 34.0039C132.657 33.8118 132.712 33.6265 132.753 33.4481H137.826V33.5716C137.826 34.5597 137.586 35.4861 137.104 36.3506C136.541 37.3662 135.626 38.1759 134.362 38.7797C132.891 39.4796 131.027 39.8296 128.773 39.8296H127.824Z" fill="white"/>
<path d="M152.487 39.5826L145.64 32.563V39.5826H140.732V24.2671H145.64V30.3809L152.384 24.2671H158.364L150.59 31.2249L158.797 39.5826H152.487Z" fill="white"/>
<path d="M169.114 24.02C171.507 24.02 173.473 24.4317 175.012 25.2551C176.291 25.955 177.253 26.9226 177.9 28.1577C178.408 29.1732 178.663 30.3123 178.663 31.5748V32.1924C178.663 33.0844 178.512 33.9696 178.209 34.8479C177.921 35.7262 177.446 36.5153 176.786 37.2152C175.136 38.9581 172.579 39.8296 169.114 39.8296H168.187C165.795 39.8296 163.835 39.4041 162.309 38.5533C160.989 37.8259 160.027 36.8378 159.422 35.589C158.9 34.5597 158.639 33.4275 158.639 32.1924V31.5748C158.639 30.2985 158.9 29.1595 159.422 28.1577C160.041 26.9226 161.003 25.955 162.309 25.2551C163.821 24.4317 165.781 24.02 168.187 24.02H169.114ZM173.528 31.7395C173.528 30.6691 173.232 29.8114 172.641 29.1664C171.83 28.2881 170.503 27.8489 168.661 27.8489C166.846 27.8489 165.519 28.2881 164.681 29.1664C164.076 29.8114 163.773 30.6691 163.773 31.7395V32.0071C163.773 33.0639 164.09 33.9284 164.722 34.6009C165.561 35.5066 166.874 35.9595 168.661 35.9595C170.503 35.9595 171.83 35.5066 172.641 34.6009C173.232 33.9422 173.528 33.0776 173.528 32.0071V31.7395Z" fill="white"/>
<path d="M181.614 39.5826V24.2671H186.542V29.8046H194.688V24.2671H199.617V39.5826H194.688V33.6128H186.542V39.5826H181.614Z" fill="white"/>
<path d="M211.802 39.8296C209.465 39.8296 207.56 39.3973 206.089 38.5327C204.811 37.7779 203.883 36.7761 203.305 35.5272C202.811 34.4842 202.563 33.3726 202.563 32.1924V31.5748C202.563 30.3946 202.811 29.283 203.305 28.24C203.91 26.9637 204.832 25.9756 206.069 25.2757C207.554 24.4386 209.465 24.02 211.802 24.02H212.751C216.05 24.02 218.47 24.7062 220.01 26.0786C220.642 26.6412 221.096 27.2794 221.37 27.993C221.659 28.7066 221.803 29.4477 221.803 30.2162V30.3192H216.73C216.689 30.1407 216.634 29.9554 216.566 29.7633C216.469 29.4751 216.256 29.1938 215.926 28.9193C215.61 28.6449 215.177 28.4047 214.627 28.1989C214.063 27.9793 213.28 27.8695 212.276 27.8695C210.612 27.8695 209.396 28.2881 208.626 29.1252C208.007 29.7976 207.698 30.6622 207.698 31.7189V31.9865C207.698 32.4394 207.773 32.8923 207.925 33.3452C208.076 33.798 208.317 34.2098 208.647 34.5803C209.458 35.4861 210.674 35.9389 212.297 35.9389C213.988 35.9389 215.211 35.5753 215.968 34.8479C216.256 34.5871 216.456 34.3058 216.566 34.0039C216.634 33.8118 216.689 33.6265 216.73 33.4481H221.803V33.5716C221.803 34.5597 221.563 35.4861 221.082 36.3506C220.518 37.3662 219.604 38.1759 218.339 38.7797C216.868 39.4796 215.005 39.8296 212.751 39.8296H211.802Z" fill="white"/>
<path d="M229.688 39.5826V28.1371H223.646V24.2671H240.639V28.1371H234.596V39.5826H229.688Z" fill="white"/>
<path d="M248.331 34.848V39.5826H243.402V24.2671H254.209C256.697 24.2671 258.491 24.7474 259.591 25.7081C260.526 26.5315 260.993 27.7597 260.993 29.3928V29.6399C260.993 31.2867 260.519 32.5287 259.57 33.3658C258.443 34.3539 256.656 34.848 254.209 34.848H248.331ZM248.331 31.1838H253.796C255.184 31.1838 255.879 30.6485 255.879 29.5781V29.5163C255.879 28.4734 255.184 27.9519 253.796 27.9519H248.331V31.1838Z" fill="white"/>
<path d="M274.616 36.186C274.258 36.8035 273.915 37.3182 273.585 37.7299C273.255 38.1279 272.884 38.4573 272.471 38.718C272.031 39.0062 271.529 39.2258 270.965 39.3768C270.402 39.514 269.735 39.5826 268.965 39.5826H265.253V35.8155H267.975C268.25 35.8155 268.388 35.7057 268.388 35.4861V35.4655C268.388 35.3557 268.36 35.2459 268.305 35.1362C268.264 35.0264 268.188 34.8823 268.078 34.7039L261.541 24.2671H267.13L271.852 32.0895L276.286 24.2671H281.648L274.616 36.186Z" fill="white"/>
<path d="M295.031 39.5826L288.184 32.563V39.5826H283.276V24.2671H288.184V30.3809L294.928 24.2671H300.908L293.134 31.2249L301.341 39.5826H295.031Z" fill="white"/>
<path d="M307.868 39.5826V28.1371H301.825V24.2671H318.818V28.1371H312.776V39.5826H307.868Z" fill="white"/>
<path fill-rule="evenodd" clip-rule="evenodd" d="M28.9081 63.3089L11.7966 57.092L9.46704 53.0642L16.2287 32.1987C15.5118 39.4402 16.9768 46.9666 20.8997 53.7492C23.0585 57.4816 25.7852 60.6836 28.9081 63.3089Z" fill="white"/>
<path fill-rule="evenodd" clip-rule="evenodd" d="M36.5328 0L41.9755 4.55865C41.9816 4.56437 41.9877 4.56993 41.9942 4.57533L57.765 17.7851L43.509 22.9657L26.2722 3.9064C26.1838 3.80857 26.0579 3.75273 25.9259 3.75273H21.3538V0H36.5328Z" fill="#FD5526"/>
<path fill-rule="evenodd" clip-rule="evenodd" d="M38.1014 47.5144C44.7426 44.5137 50.5401 39.4837 54.463 32.7012C56.6214 28.9694 58.0358 25.0119 58.7522 21.0003L58.7517 20.9992C58.0358 25.0112 56.621 28.9691 54.4626 32.7012C50.5397 39.4838 44.7422 44.5137 38.1007 47.5144H38.1014ZM58.1537 18.6367L43.8282 23.8426C43.9441 30.5096 42.3044 37.2926 38.722 43.4865C37.9469 44.8266 37.1024 46.1021 36.1956 47.3107C43.2985 44.4926 49.5359 39.3559 53.6543 32.2354C56.1514 27.9177 57.626 23.292 58.1537 18.6367Z" fill="#757575"/>
<path fill-rule="evenodd" clip-rule="evenodd" d="M58.2372 54.5923L52.7409 56.5894L52.7418 56.5882L32.1909 64.0546L34.8243 49.1404L60.181 43.7258L62.5707 39.5942L65.8264 41.4706L58.2372 54.5923Z" fill="#FD5526"/>
<path fill-rule="evenodd" clip-rule="evenodd" d="M5.36475 18.0665L17.4221 28.1643C23.0473 24.824 29.6187 22.9056 36.639 22.9056C38.428 22.9056 40.1878 23.0302 41.9105 23.2711C35.8101 18.2042 27.9679 15.1571 19.4116 15.1571C14.4174 15.1571 9.66711 16.1951 5.36475 18.0665ZM7.11335 16.3689L21.0632 4.68457H25.7221L40.4439 20.9628C34.5198 16.7223 27.2574 14.2255 19.4116 14.2255C15.094 14.2255 10.9525 14.9817 7.11335 16.3689Z" fill="#757575"/>
<path fill-rule="evenodd" clip-rule="evenodd" d="M7.10938 16.3689L21.0592 4.68457H25.7181L40.4399 20.9628C34.5158 16.7223 27.2535 14.2255 19.4077 14.2255C15.0901 14.2255 10.9485 14.9817 7.10938 16.3689Z" fill="white"/>
<path fill-rule="evenodd" clip-rule="evenodd" d="M61.9159 38.8985L59.5863 42.9263L38.1033 47.5138C44.7445 44.5127 50.542 39.4829 54.4649 32.7004C56.6233 28.9683 58.0381 25.0105 58.7541 20.9985L61.9159 38.8985Z" fill="white"/>
<path fill-rule="evenodd" clip-rule="evenodd" d="M1.01562 40.3201L0 46.0697L7.58951 59.1914L10.8453 57.3153L8.45556 53.1835L8.45699 53.1791L8.45211 53.1705L16.4305 28.5509L4.81378 18.8223L1.01614 40.321L1.01562 40.3201Z" fill="#FD5526"/>
<path d="M17.3592 30.6514C17.9545 32.0402 18.6389 33.4085 19.4143 34.749C22.9967 40.9431 28.0618 45.7518 33.9037 48.985L31.2574 63.9723C27.4821 61.1887 24.2059 57.6008 21.7085 53.2832C17.5898 46.1621 16.2522 38.2011 17.3592 30.6514Z" fill="#757575"/>
</svg>
